<svg xmlns="http://www.w3.org/2000/svg" xmlns:xlink="http://www.w3.org/1999/xlink" width="500" zoomAndPan="magnify" viewBox="0 0 375 374.999991" height="500" preserveAspectRatio="xMidYMid meet" version="1.0"><path fill="#ffffff" d="M 280.953125 0 L 93.75 0 C 42.261719 0 0 42.261719 0 94.046875 L 0 281.25 C 0 332.738281 42.261719 375 93.75 375 L 280.953125 375 C 332.738281 375 375 332.738281 375 280.953125 L 375 94.046875 C 375 42.261719 332.738281 0 280.953125 0 Z M 237.796875 187.5 L 202.382812 187.5 L 202.382812 303.570312 L 157.738281 303.570312 L 157.738281 187.5 L 133.929688 187.5 L 133.929688 139.882812 L 154.761719 139.882812 L 154.761719 119.644531 C 154.761719 100.59375 164.285156 70.535156 204.464844 70.535156 L 241.070312 70.535156 L 241.070312 110.117188 L 215.179688 110.117188 C 211.011719 110.117188 205.355469 112.796875 205.355469 122.023438 L 205.355469 139.882812 L 241.964844 139.882812 Z M 237.796875 187.5 " fill-opacity="1" fill-rule="nonzero"/></svg>