<svg xmlns="http://www.w3.org/2000/svg" xmlns:xlink="http://www.w3.org/1999/xlink" width="500" zoomAndPan="magnify" viewBox="0 0 375 374.999991" height="500" preserveAspectRatio="xMidYMid meet" version="1.0"><path fill="#ffffff" d="M 104.167969 0 C 46.644531 0 0 46.644531 0 104.167969 L 0 270.832031 C 0 328.355469 46.644531 375 104.167969 375 L 270.832031 375 C 328.355469 375 375 328.355469 375 270.832031 L 375 104.167969 C 375 46.644531 328.355469 0 270.832031 0 Z M 312.5 41.667969 C 324 41.667969 333.332031 51 333.332031 62.5 C 333.332031 74 324 83.332031 312.5 83.332031 C 301 83.332031 291.667969 74 291.667969 62.5 C 291.667969 51 301 41.667969 312.5 41.667969 Z M 187.5 83.332031 C 245.019531 83.332031 291.667969 129.980469 291.667969 187.5 C 291.667969 245.019531 245.019531 291.667969 187.5 291.667969 C 129.980469 291.667969 83.332031 245.019531 83.332031 187.5 C 83.332031 129.980469 129.980469 83.332031 187.5 83.332031 Z M 187.5 125 C 185.453125 125 183.410156 125.101562 181.375 125.300781 C 179.335938 125.5 177.3125 125.800781 175.308594 126.199219 C 173.300781 126.601562 171.316406 127.097656 169.355469 127.691406 C 167.398438 128.285156 165.472656 128.972656 163.582031 129.757812 C 161.691406 130.539062 159.84375 131.414062 158.039062 132.378906 C 156.234375 133.34375 154.480469 134.394531 152.777344 135.53125 C 151.074219 136.671875 149.433594 137.886719 147.851562 139.1875 C 146.269531 140.484375 144.753906 141.859375 143.304688 143.304688 C 141.859375 144.753906 140.484375 146.269531 139.1875 147.851562 C 137.886719 149.433594 136.671875 151.074219 135.53125 152.777344 C 134.394531 154.480469 133.34375 156.234375 132.378906 158.039062 C 131.414062 159.84375 130.539062 161.691406 129.757812 163.582031 C 128.972656 165.472656 128.285156 167.398438 127.691406 169.355469 C 127.097656 171.316406 126.601562 173.300781 126.199219 175.308594 C 125.800781 177.3125 125.5 179.335938 125.300781 181.375 C 125.101562 183.410156 125 185.453125 125 187.5 C 125 189.546875 125.101562 191.589844 125.300781 193.625 C 125.5 195.664062 125.800781 197.683594 126.199219 199.691406 C 126.601562 201.699219 127.097656 203.683594 127.691406 205.644531 C 128.285156 207.601562 128.972656 209.527344 129.757812 211.417969 C 130.539062 213.308594 131.414062 215.15625 132.378906 216.960938 C 133.34375 218.765625 134.394531 220.519531 135.53125 222.222656 C 136.671875 223.925781 137.886719 225.566406 139.1875 227.148438 C 140.484375 228.730469 141.859375 230.246094 143.304688 231.695312 C 144.753906 233.140625 146.269531 234.515625 147.851562 235.8125 C 149.433594 237.113281 151.074219 238.328125 152.777344 239.464844 C 154.480469 240.605469 156.234375 241.65625 158.039062 242.621094 C 159.84375 243.585938 161.691406 244.460938 163.582031 245.242188 C 165.472656 246.027344 167.398438 246.714844 169.355469 247.308594 C 171.316406 247.902344 173.300781 248.398438 175.308594 248.800781 C 177.3125 249.199219 179.335938 249.5 181.375 249.699219 C 183.410156 249.898438 185.453125 250 187.5 250 C 189.546875 250 191.589844 249.898438 193.625 249.699219 C 195.664062 249.5 197.683594 249.199219 199.691406 248.800781 C 201.699219 248.398438 203.683594 247.902344 205.644531 247.308594 C 207.601562 246.714844 209.527344 246.027344 211.417969 245.242188 C 213.308594 244.460938 215.15625 243.585938 216.960938 242.621094 C 218.765625 241.65625 220.519531 240.605469 222.222656 239.464844 C 223.925781 238.328125 225.566406 237.113281 227.148438 235.8125 C 228.730469 234.515625 230.246094 233.140625 231.695312 231.695312 C 233.140625 230.246094 234.515625 228.730469 235.8125 227.148438 C 237.113281 225.566406 238.328125 223.925781 239.464844 222.222656 C 240.605469 220.519531 241.65625 218.765625 242.621094 216.960938 C 243.585938 215.15625 244.460938 213.308594 245.242188 211.417969 C 246.027344 209.527344 246.714844 207.601562 247.308594 205.644531 C 247.902344 203.683594 248.398438 201.699219 248.800781 199.691406 C 249.199219 197.683594 249.5 195.664062 249.699219 193.625 C 249.898438 191.589844 250 189.546875 250 187.5 C 250 185.453125 249.898438 183.410156 249.699219 181.375 C 249.5 179.335938 249.199219 177.3125 248.800781 175.308594 C 248.398438 173.300781 247.902344 171.316406 247.308594 169.355469 C 246.714844 167.398438 246.027344 165.472656 245.242188 163.582031 C 244.460938 161.691406 243.585938 159.84375 242.621094 158.039062 C 241.65625 156.234375 240.605469 154.480469 239.464844 152.777344 C 238.328125 151.074219 237.113281 149.433594 235.8125 147.851562 C 234.515625 146.269531 233.140625 144.753906 231.695312 143.304688 C 230.246094 141.859375 228.730469 140.484375 227.148438 139.1875 C 225.566406 137.886719 223.925781 136.671875 222.222656 135.53125 C 220.519531 134.394531 218.765625 133.34375 216.960938 132.378906 C 215.15625 131.414062 213.308594 130.539062 211.417969 129.757812 C 209.527344 128.972656 207.601562 128.285156 205.644531 127.691406 C 203.683594 127.097656 201.699219 126.601562 199.691406 126.199219 C 197.683594 125.800781 195.664062 125.5 193.625 125.300781 C 191.589844 125.101562 189.546875 125 187.5 125 Z M 187.5 125 " fill-opacity="1" fill-rule="nonzero"/></svg>