<svg xmlns="http://www.w3.org/2000/svg" xmlns:xlink="http://www.w3.org/1999/xlink" width="140" zoomAndPan="magnify" viewBox="0 0 104.88 37.5" height="50" preserveAspectRatio="xMidYMid meet" version="1.0"><defs><g/><clipPath id="21d08a0948"><path d="M 4 4 L 27 4 L 27 17 L 4 17 Z M 4 4 " clip-rule="nonzero"/></clipPath><clipPath id="48101dc8f3"><path d="M 4.332031 4.441406 L 26.519531 3.628906 L 26.980469 16.203125 L 4.792969 17.015625 Z M 4.332031 4.441406 " clip-rule="nonzero"/></clipPath><clipPath id="2db3928a79"><path d="M 4.332031 4.441406 L 26.519531 3.628906 L 26.980469 16.203125 L 4.792969 17.015625 Z M 4.332031 4.441406 " clip-rule="nonzero"/></clipPath></defs><g clip-path="url(#21d08a0948)"><g clip-path="url(#48101dc8f3)"><g clip-path="url(#2db3928a79)"><path fill="#7a3bc8" d="M 20.789062 9.777344 C 19.976562 9.238281 18.71875 8.21875 15.582031 8.335938 L 15.542969 8.335938 C 12.40625 8.453125 11.222656 9.558594 10.457031 10.15625 C 9.6875 10.757812 9.734375 9.925781 9.734375 9.925781 C 9.734375 9.925781 10.644531 7.6875 15.511719 7.507812 L 15.550781 7.507812 C 20.417969 7.328125 21.488281 9.492188 21.488281 9.492188 C 21.488281 9.492188 21.597656 10.320312 20.789062 9.777344 Z M 15.410156 4.035156 L 4.566406 10.164062 L 6.355469 10.660156 L 6.488281 14.871094 L 6.039062 15.628906 L 6.085938 16.96875 L 7.363281 16.921875 L 7.316406 15.582031 L 6.8125 14.875 L 6.671875 10.746094 L 9.910156 11.628906 L 9.992188 13.128906 C 9.992188 13.128906 12.257812 11.078125 15.664062 10.953125 C 19.070312 10.828125 21.503906 12.710938 21.503906 12.710938 L 21.476562 11.207031 L 26.699219 9.355469 L 15.410156 4.035156 " fill-opacity="1" fill-rule="nonzero"/></g></g></g><g fill="#000000" fill-opacity="1"><g transform="translate(9.028513, 28.591377)"><g><path d="M 7.046875 0.234375 C 5.941406 0.234375 4.957031 0.0976562 4.09375 -0.171875 C 3.238281 -0.453125 2.523438 -0.8125 1.953125 -1.25 C 1.378906 -1.695312 0.941406 -2.179688 0.640625 -2.703125 L 2.375 -4.8125 L 2.640625 -4.8125 C 3.117188 -4.101562 3.726562 -3.535156 4.46875 -3.109375 C 5.207031 -2.691406 6.066406 -2.484375 7.046875 -2.484375 C 7.890625 -2.484375 8.523438 -2.660156 8.953125 -3.015625 C 9.378906 -3.378906 9.59375 -3.875 9.59375 -4.5 C 9.59375 -4.875 9.523438 -5.1875 9.390625 -5.4375 C 9.253906 -5.695312 9.023438 -5.914062 8.703125 -6.09375 C 8.378906 -6.269531 7.945312 -6.425781 7.40625 -6.5625 L 5.359375 -7.03125 C 3.929688 -7.351562 2.867188 -7.894531 2.171875 -8.65625 C 1.472656 -9.414062 1.125 -10.398438 1.125 -11.609375 C 1.125 -12.503906 1.347656 -13.289062 1.796875 -13.96875 C 2.242188 -14.65625 2.894531 -15.1875 3.75 -15.5625 C 4.613281 -15.945312 5.644531 -16.140625 6.84375 -16.140625 C 8.070312 -16.140625 9.117188 -15.976562 9.984375 -15.65625 C 10.859375 -15.332031 11.597656 -14.835938 12.203125 -14.171875 L 10.65625 -12.03125 L 10.375 -12.03125 C 9.925781 -12.5 9.410156 -12.851562 8.828125 -13.09375 C 8.253906 -13.332031 7.59375 -13.453125 6.84375 -13.453125 C 5.976562 -13.453125 5.320312 -13.296875 4.875 -12.984375 C 4.425781 -12.679688 4.203125 -12.265625 4.203125 -11.734375 C 4.203125 -11.234375 4.359375 -10.832031 4.671875 -10.53125 C 4.984375 -10.226562 5.53125 -9.992188 6.3125 -9.828125 L 8.40625 -9.40625 C 9.945312 -9.070312 11.066406 -8.515625 11.765625 -7.734375 C 12.460938 -6.960938 12.8125 -5.945312 12.8125 -4.6875 C 12.8125 -3.695312 12.59375 -2.832031 12.15625 -2.09375 C 11.726562 -1.351562 11.082031 -0.78125 10.21875 -0.375 C 9.363281 0.03125 8.304688 0.234375 7.046875 0.234375 Z M 7.046875 0.234375 "/></g></g></g><g fill="#000000" fill-opacity="1"><g transform="translate(22.687134, 28.591377)"><g><path d="M 8.28125 -2.859375 L 9.0625 -0.625 C 8.738281 -0.363281 8.328125 -0.15625 7.828125 0 C 7.335938 0.15625 6.78125 0.234375 6.15625 0.234375 C 4.851562 0.234375 3.863281 -0.117188 3.1875 -0.828125 C 2.519531 -1.535156 2.1875 -2.566406 2.1875 -3.921875 L 2.1875 -9.625 L 0.359375 -9.625 L 0.359375 -12.015625 L 2.1875 -12.015625 L 2.1875 -14.34375 L 5.203125 -14.84375 L 5.203125 -12.015625 L 8.609375 -12.015625 L 8.609375 -9.625 L 5.203125 -9.625 L 5.203125 -4.140625 C 5.203125 -3.535156 5.320312 -3.097656 5.5625 -2.828125 C 5.8125 -2.554688 6.171875 -2.421875 6.640625 -2.421875 C 7.179688 -2.421875 7.648438 -2.566406 8.046875 -2.859375 Z M 8.28125 -2.859375 "/></g></g></g><g fill="#000000" fill-opacity="1"><g transform="translate(32.006752, 28.591377)"><g><path d="M 5.5 0.234375 C 4.144531 0.234375 3.144531 -0.132812 2.5 -0.875 C 1.863281 -1.613281 1.546875 -2.671875 1.546875 -4.046875 L 1.546875 -12 L 4.5625 -12 L 4.5625 -4.421875 C 4.5625 -3.691406 4.71875 -3.15625 5.03125 -2.8125 C 5.34375 -2.476562 5.832031 -2.3125 6.5 -2.3125 C 7.332031 -2.3125 7.976562 -2.582031 8.4375 -3.125 C 8.90625 -3.675781 9.140625 -4.539062 9.140625 -5.71875 L 9.140625 -12 L 12.15625 -12 L 12.15625 0 L 9.265625 0 L 9.265625 -1.765625 L 9.03125 -1.8125 C 8.644531 -1.125 8.171875 -0.609375 7.609375 -0.265625 C 7.054688 0.0664062 6.351562 0.234375 5.5 0.234375 Z M 5.5 0.234375 "/></g></g></g><g fill="#000000" fill-opacity="1"><g transform="translate(45.882866, 28.591377)"><g><path d="M 5.921875 0.234375 C 4.972656 0.234375 4.132812 0.00390625 3.40625 -0.453125 C 2.675781 -0.921875 2.101562 -1.617188 1.6875 -2.546875 C 1.28125 -3.484375 1.078125 -4.632812 1.078125 -6 C 1.078125 -7.363281 1.285156 -8.507812 1.703125 -9.4375 C 2.128906 -10.375 2.71875 -11.070312 3.46875 -11.53125 C 4.226562 -12 5.097656 -12.234375 6.078125 -12.234375 C 6.828125 -12.234375 7.472656 -12.101562 8.015625 -11.84375 C 8.566406 -11.582031 9.03125 -11.179688 9.40625 -10.640625 L 9.640625 -10.6875 L 9.640625 -16.8125 L 12.65625 -16.8125 L 12.65625 0 L 9.640625 0 L 9.640625 -1.5625 L 9.40625 -1.59375 C 9.070312 -1.03125 8.613281 -0.582031 8.03125 -0.25 C 7.457031 0.0703125 6.753906 0.234375 5.921875 0.234375 Z M 6.90625 -2.328125 C 7.757812 -2.328125 8.429688 -2.628906 8.921875 -3.234375 C 9.410156 -3.835938 9.65625 -4.757812 9.65625 -6 C 9.65625 -7.226562 9.410156 -8.144531 8.921875 -8.75 C 8.429688 -9.363281 7.757812 -9.671875 6.90625 -9.671875 C 6.019531 -9.671875 5.34375 -9.375 4.875 -8.78125 C 4.40625 -8.195312 4.171875 -7.269531 4.171875 -6 C 4.171875 -4.738281 4.40625 -3.8125 4.875 -3.21875 C 5.34375 -2.625 6.019531 -2.328125 6.90625 -2.328125 Z M 6.90625 -2.328125 "/></g></g></g><g fill="#7a3bc8" fill-opacity="1"><g transform="translate(60.257127, 28.591377)"><g><path d="M 4.984375 0.234375 C 3.898438 0.234375 3.070312 -0.0546875 2.5 -0.640625 C 1.9375 -1.222656 1.65625 -2.113281 1.65625 -3.3125 L 1.65625 -16.8125 L 4.671875 -16.8125 L 4.671875 -3.421875 C 4.671875 -2.691406 4.972656 -2.328125 5.578125 -2.328125 C 5.753906 -2.328125 5.941406 -2.359375 6.140625 -2.421875 L 6.28125 -2.375 L 6.5625 -0.046875 C 6.394531 0.0351562 6.171875 0.101562 5.890625 0.15625 C 5.617188 0.207031 5.316406 0.234375 4.984375 0.234375 Z M 4.984375 0.234375 "/></g></g></g><g fill="#7a3bc8" fill-opacity="1"><g transform="translate(67.151686, 28.591377)"><g><path d="M 3.234375 -13.4375 C 2.691406 -13.4375 2.25 -13.597656 1.90625 -13.921875 C 1.5625 -14.253906 1.390625 -14.679688 1.390625 -15.203125 C 1.390625 -15.722656 1.5625 -16.144531 1.90625 -16.46875 C 2.25 -16.800781 2.691406 -16.96875 3.234375 -16.96875 C 3.597656 -16.96875 3.921875 -16.890625 4.203125 -16.734375 C 4.484375 -16.585938 4.703125 -16.378906 4.859375 -16.109375 C 5.015625 -15.847656 5.09375 -15.546875 5.09375 -15.203125 C 5.09375 -14.867188 5.015625 -14.566406 4.859375 -14.296875 C 4.703125 -14.023438 4.484375 -13.8125 4.203125 -13.65625 C 3.921875 -13.507812 3.597656 -13.4375 3.234375 -13.4375 Z M 1.734375 0 L 1.734375 -12 L 4.75 -12 L 4.75 0 Z M 1.734375 0 "/></g></g></g><g fill="#7a3bc8" fill-opacity="1"><g transform="translate(73.611256, 28.591377)"><g><path d="M 2.09375 0 L 2.09375 -9.625 L 0.40625 -9.625 L 0.40625 -12.015625 L 2.09375 -12.015625 C 1.976562 -12.515625 1.921875 -12.988281 1.921875 -13.4375 C 1.921875 -14.195312 2.09375 -14.847656 2.4375 -15.390625 C 2.78125 -15.929688 3.28125 -16.34375 3.9375 -16.625 C 4.59375 -16.90625 5.367188 -17.046875 6.265625 -17.046875 C 7.585938 -17.046875 8.578125 -16.816406 9.234375 -16.359375 L 8.53125 -14.140625 L 8.296875 -14.09375 C 7.847656 -14.414062 7.273438 -14.578125 6.578125 -14.578125 C 6.023438 -14.578125 5.613281 -14.441406 5.34375 -14.171875 C 5.070312 -13.910156 4.9375 -13.550781 4.9375 -13.09375 C 4.9375 -12.90625 4.945312 -12.726562 4.96875 -12.5625 C 5 -12.394531 5.046875 -12.210938 5.109375 -12.015625 L 8.546875 -12.015625 L 8.546875 -9.625 L 5.109375 -9.625 L 5.109375 0 Z M 2.09375 0 "/></g></g></g><g fill="#7a3bc8" fill-opacity="1"><g transform="translate(82.267515, 28.591377)"><g><path d="M 11.859375 -5.3125 L 4.140625 -5.3125 C 4.234375 -4.269531 4.53125 -3.507812 5.03125 -3.03125 C 5.539062 -2.5625 6.234375 -2.328125 7.109375 -2.328125 C 7.804688 -2.328125 8.367188 -2.453125 8.796875 -2.703125 C 9.222656 -2.960938 9.566406 -3.359375 9.828125 -3.890625 L 10.046875 -3.890625 L 12.046875 -2.59375 C 11.660156 -1.757812 11.070312 -1.078125 10.28125 -0.546875 C 9.488281 -0.0234375 8.429688 0.234375 7.109375 0.234375 C 5.867188 0.234375 4.796875 0 3.890625 -0.46875 C 2.992188 -0.945312 2.300781 -1.648438 1.8125 -2.578125 C 1.320312 -3.515625 1.078125 -4.65625 1.078125 -6 C 1.078125 -7.363281 1.332031 -8.507812 1.84375 -9.4375 C 2.363281 -10.375 3.0625 -11.070312 3.9375 -11.53125 C 4.8125 -12 5.796875 -12.234375 6.890625 -12.234375 C 8.585938 -12.234375 9.890625 -11.78125 10.796875 -10.875 C 11.703125 -9.976562 12.15625 -8.660156 12.15625 -6.921875 C 12.15625 -6.285156 12.132812 -5.796875 12.09375 -5.453125 Z M 9.265625 -7.265625 C 9.234375 -8.179688 9.019531 -8.847656 8.625 -9.265625 C 8.238281 -9.679688 7.660156 -9.890625 6.890625 -9.890625 C 5.367188 -9.890625 4.472656 -9.015625 4.203125 -7.265625 Z M 9.265625 -7.265625 "/></g></g></g><g fill="#000000" fill-opacity="1"><g transform="translate(95.303613, 28.591377)"><g/></g></g></svg>